<?xml version="1.0" encoding="UTF-8" standalone="no"?><!DOCTYPE svg PUBLIC "-//W3C//DTD SVG 1.1//EN" "http://www.w3.org/Graphics/SVG/1.1/DTD/svg11.dtd"><svg width="100%" height="100%" viewBox="0 0 1063 945" version="1.1" xmlns="http://www.w3.org/2000/svg" xmlns:xlink="http://www.w3.org/1999/xlink" xml:space="preserve" xmlns:serif="http://www.serif.com/" style="fill-rule:evenodd;clip-rule:evenodd;stroke-linejoin:round;stroke-miterlimit:2;"><rect id="Artboard1" x="0" y="0" width="1062.99" height="944.882" style="fill:none;"/><clipPath id="_clip1"><rect id="Artboard11" serif:id="Artboard1" x="0" y="0" width="1062.99" height="944.882"/></clipPath><g clip-path="url(#_clip1)"><path d="M1062.99,864.134l0,-783.387c0,-44.565 -36.182,-80.747 -80.747,-80.747l-901.498,0c-44.565,0 -80.747,36.182 -80.747,80.747l0,783.387c0,44.566 36.182,80.748 80.747,80.748l901.498,-0c44.565,-0 80.747,-36.182 80.747,-80.748Z" style="fill:#b3b3b3;"/><g><path d="M816.096,822.724c-2.555,1.385 -5.252,1.65 -8.093,0.796c-2.841,-0.854 -4.954,-2.559 -6.34,-5.113c-1.385,-2.555 -1.649,-5.219 -0.792,-7.994c0.856,-2.775 2.574,-4.862 5.155,-6.261c2.685,-1.455 5.363,-1.787 8.037,-0.993c2.673,0.793 4.737,2.532 6.193,5.217c1.413,2.607 1.712,5.303 0.896,8.09c-0.817,2.787 -2.502,4.872 -5.056,6.258Z" style="fill-rule:nonzero;"/><path d="M790.674,833.599c-2.767,0.887 -5.467,0.648 -8.1,-0.719c-2.634,-1.366 -4.394,-3.433 -5.281,-6.2c-0.887,-2.766 -0.653,-5.434 0.703,-8.002c1.356,-2.567 3.432,-4.299 6.227,-5.196c2.908,-0.932 5.602,-0.761 8.082,0.515c2.479,1.275 4.185,3.367 5.118,6.275c0.905,2.823 0.699,5.528 -0.62,8.115c-1.319,2.587 -3.362,4.325 -6.129,5.212Z" style="fill-rule:nonzero;"/><path d="M749.687,840.598c-2.905,0.079 -5.431,-0.905 -7.578,-2.952c-2.147,-2.047 -3.26,-4.523 -3.339,-7.428c-0.08,-2.904 0.89,-5.4 2.91,-7.487c2.019,-2.087 4.496,-3.171 7.43,-3.251c3.053,-0.083 5.592,0.834 7.616,2.751c2.025,1.917 3.079,4.402 3.163,7.455c0.081,2.964 -0.873,5.504 -2.862,7.619c-1.989,2.116 -4.436,3.214 -7.34,3.293Z" style="fill-rule:nonzero;"/><path d="M694.954,831.715c-2.729,-0.997 -4.714,-2.844 -5.954,-5.539c-1.24,-2.695 -1.362,-5.406 -0.364,-8.136c0.998,-2.729 2.82,-4.69 5.467,-5.885c2.647,-1.195 5.348,-1.289 8.105,-0.281c2.869,1.049 4.89,2.838 6.065,5.367c1.175,2.529 1.238,5.227 0.189,8.096c-1.018,2.784 -2.842,4.793 -5.471,6.026c-2.629,1.233 -5.308,1.35 -8.037,0.352Z" style="fill-rule:nonzero;"/><path d="M637.143,793.508c-1.99,-2.118 -2.933,-4.659 -2.831,-7.624c0.102,-2.965 1.212,-5.442 3.33,-7.432c2.117,-1.99 4.626,-2.924 7.528,-2.803c2.901,0.122 5.357,1.252 7.367,3.391c2.092,2.225 3.094,4.731 3.008,7.518c-0.087,2.788 -1.243,5.227 -3.468,7.318c-2.16,2.031 -4.692,3.006 -7.595,2.927c-2.902,-0.08 -5.349,-1.178 -7.339,-3.295Z" style="fill-rule:nonzero;"/><path d="M599.286,720.025c-0.557,-2.852 -0.003,-5.506 1.662,-7.961c1.665,-2.455 3.924,-3.961 6.776,-4.519c2.851,-0.557 5.473,-0.012 7.864,1.636c2.392,1.647 3.869,3.912 4.432,6.792c0.585,2.998 0.1,5.653 -1.457,7.966c-1.557,2.313 -3.834,3.763 -6.832,4.348c-2.91,0.569 -5.572,0.047 -7.987,-1.566c-2.415,-1.612 -3.901,-3.845 -4.458,-6.696Z" style="fill-rule:nonzero;"/><path d="M612.674,624.509c1.321,-2.588 3.394,-4.334 6.22,-5.239c2.825,-0.905 5.532,-0.697 8.12,0.624c2.588,1.321 4.315,3.368 5.18,6.14c0.866,2.771 0.631,5.465 -0.703,8.079c-1.388,2.72 -3.409,4.51 -6.061,5.37c-2.653,0.86 -5.339,0.596 -8.06,-0.793c-2.64,-1.347 -4.414,-3.401 -5.319,-6.16c-0.905,-2.759 -0.698,-5.432 0.623,-8.021Z" style="fill-rule:nonzero;"/><path d="M694.401,551.755c2.726,-1.006 5.434,-0.883 8.124,0.368c2.69,1.251 4.538,3.239 5.544,5.965c1.006,2.726 0.887,5.401 -0.356,8.025c-1.244,2.624 -3.243,4.445 -5.997,5.461c-2.865,1.058 -5.564,1.003 -8.096,-0.164c-2.533,-1.167 -4.328,-3.183 -5.385,-6.048c-1.027,-2.782 -0.937,-5.493 0.268,-8.135c1.206,-2.641 3.172,-4.465 5.898,-5.472Z" style="fill-rule:nonzero;"/><path d="M816.572,560.804c2.548,1.397 4.233,3.52 5.054,6.371c0.821,2.851 0.534,5.55 -0.863,8.098c-1.396,2.548 -3.493,4.214 -6.289,4.997c-2.796,0.784 -5.481,0.47 -8.056,-0.941c-2.678,-1.467 -4.407,-3.54 -5.189,-6.216c-0.781,-2.677 -0.438,-5.354 1.03,-8.033c1.425,-2.6 3.53,-4.312 6.314,-5.135c2.785,-0.824 5.451,-0.538 7.999,0.859Z" style="fill-rule:nonzero;"/></g><path d="M841.005,366.996c1.565,1.863 2.298,4.286 2.029,6.704c-0.269,2.418 -1.516,4.62 -3.451,6.094c-27.138,20.109 -60.084,31.062 -94.024,31.062c-86.986,-0 -157.607,-70.622 -157.607,-157.608c-0,-86.986 70.621,-157.608 157.607,-157.608c33.94,0 66.886,10.953 93.997,31.098c1.925,1.467 3.166,3.658 3.434,6.064c0.267,2.405 -0.462,4.816 -2.018,6.67c-4.18,5.05 -9.823,11.774 -13.948,16.69c-3.031,3.611 -8.354,4.23 -12.133,1.411c-20.084,-14.618 -44.349,-22.531 -69.332,-22.531c-65.239,0 -118.205,52.967 -118.205,118.206c-0,65.24 52.966,118.206 118.205,118.206c24.983,-0 49.248,-7.913 69.362,-22.49c3.758,-2.802 9.049,-2.186 12.062,1.405c4.166,4.881 9.809,11.605 14.022,16.627Zm-91.318,-262.712c-2.905,-0.079 -5.431,0.905 -7.578,2.952c-2.147,2.047 -3.26,4.523 -3.339,7.428c-0.08,2.904 0.89,5.4 2.91,7.487c2.019,2.087 4.496,3.17 7.43,3.251c3.053,0.083 5.592,-0.834 7.616,-2.751c2.025,-1.917 3.079,-4.402 3.163,-7.455c0.081,-2.964 -0.873,-5.504 -2.862,-7.62c-1.989,-2.115 -4.436,-3.213 -7.34,-3.292Zm40.987,6.999c-2.767,-0.887 -5.467,-0.648 -8.1,0.719c-2.634,1.366 -4.394,3.432 -5.281,6.199c-0.887,2.767 -0.653,5.435 0.703,8.002c1.356,2.568 3.432,4.3 6.227,5.197c2.908,0.932 5.602,0.761 8.082,-0.515c2.479,-1.275 4.185,-3.367 5.118,-6.275c0.905,-2.823 0.699,-5.529 -0.62,-8.116c-1.319,-2.586 -3.362,-4.324 -6.129,-5.211Zm-95.72,1.883c-2.729,0.998 -4.714,2.845 -5.954,5.539c-1.24,2.695 -1.362,5.407 -0.364,8.136c0.998,2.729 2.82,4.691 5.467,5.886c2.647,1.195 5.348,1.288 8.105,0.28c2.869,-1.048 4.89,-2.837 6.065,-5.366c1.175,-2.529 1.238,-5.227 0.189,-8.096c-1.018,-2.784 -2.842,-4.793 -5.471,-6.026c-2.629,-1.233 -5.308,-1.35 -8.037,-0.353Zm121.142,8.992c-2.555,-1.385 -5.252,-1.65 -8.093,-0.796c-2.841,0.854 -4.954,2.559 -6.34,5.113c-1.385,2.554 -1.649,5.219 -0.792,7.994c0.856,2.774 2.574,4.861 5.155,6.261c2.685,1.455 5.363,1.786 8.037,0.993c2.673,-0.793 4.737,-2.533 6.193,-5.217c1.413,-2.607 1.712,-5.303 0.896,-8.09c-0.817,-2.787 -2.502,-4.873 -5.056,-6.258Zm-178.953,29.216c-1.99,2.118 -2.933,4.659 -2.831,7.624c0.102,2.965 1.212,5.442 3.33,7.432c2.117,1.99 4.626,2.924 7.528,2.803c2.901,-0.122 5.357,-1.252 7.367,-3.391c2.092,-2.225 3.094,-4.731 3.008,-7.519c-0.087,-2.787 -1.243,-5.226 -3.468,-7.317c-2.16,-2.031 -4.692,-3.007 -7.595,-2.927c-2.902,0.08 -5.349,1.178 -7.339,3.295Zm-37.857,73.483c-0.557,2.852 -0.003,5.506 1.662,7.961c1.665,2.455 3.924,3.961 6.776,4.518c2.851,0.558 5.473,0.013 7.864,-1.635c2.392,-1.647 3.869,-3.912 4.432,-6.793c0.585,-2.997 0.1,-5.652 -1.457,-7.965c-1.557,-2.314 -3.834,-3.763 -6.832,-4.349c-2.91,-0.568 -5.572,-0.046 -7.987,1.567c-2.415,1.612 -3.901,3.845 -4.458,6.696Zm13.388,95.515c1.321,2.589 3.394,4.335 6.22,5.24c2.825,0.905 5.532,0.697 8.12,-0.624c2.588,-1.321 4.315,-3.368 5.18,-6.14c0.866,-2.772 0.631,-5.465 -0.703,-8.079c-1.388,-2.72 -3.409,-4.51 -6.061,-5.37c-2.653,-0.86 -5.339,-0.596 -8.06,0.792c-2.64,1.348 -4.414,3.402 -5.319,6.161c-0.905,2.759 -0.698,5.432 0.623,8.02Zm203.898,63.706c2.548,-1.397 4.233,-3.52 5.054,-6.371c0.821,-2.851 0.534,-5.55 -0.863,-8.098c-1.396,-2.548 -3.493,-4.214 -6.289,-4.998c-2.796,-0.783 -5.481,-0.469 -8.056,0.941c-2.678,1.468 -4.407,3.541 -5.189,6.217c-0.781,2.677 -0.438,5.354 1.03,8.032c1.425,2.601 3.53,4.312 6.314,5.136c2.785,0.824 5.451,0.538 7.999,-0.859Zm-122.171,9.048c2.726,1.007 5.434,0.884 8.124,-0.367c2.69,-1.251 4.538,-3.239 5.544,-5.965c1.006,-2.726 0.887,-5.401 -0.356,-8.025c-1.244,-2.624 -3.243,-4.445 -5.997,-5.461c-2.865,-1.058 -5.564,-1.003 -8.096,0.164c-2.533,1.167 -4.328,3.183 -5.385,6.048c-1.027,2.782 -0.937,5.493 0.268,8.135c1.206,2.641 3.172,4.465 5.898,5.471Z"/><path d="M707.174,253.248c-0,21.058 17.328,38.386 38.385,38.386c21.058,-0 38.386,-17.328 38.386,-38.386c0,-21.058 -17.328,-38.386 -38.386,-38.386c-21.057,0 -38.385,17.328 -38.385,38.386Z" style="fill:#fff;fill-rule:nonzero;"/><path d="M249.504,691.634c0,21.058 17.328,38.386 38.386,38.386c21.058,-0 38.386,-17.328 38.386,-38.386c-0,-21.058 -17.328,-38.386 -38.386,-38.386c-21.058,0 -38.386,17.328 -38.386,38.386l0,-0Z" style="fill:#fff;fill-rule:nonzero;"/><path d="M707.174,691.634c-0,21.058 17.328,38.386 38.385,38.386c21.058,-0 38.386,-17.328 38.386,-38.386c0,-21.058 -17.328,-38.386 -38.386,-38.386c-21.057,0 -38.385,17.328 -38.385,38.386Z" style="fill:#fff;fill-rule:nonzero;"/><path d="M249.504,253.248c0,21.058 17.328,38.386 38.386,38.386c21.058,-0 38.386,-17.328 38.386,-38.386c-0,-21.058 -17.328,-38.386 -38.386,-38.386c-21.058,0 -38.386,17.328 -38.386,38.386l0,0Z" style="fill:#fff;fill-rule:nonzero;"/><g><path d="M968.629,729.333c0,-2.115 1.716,-3.83 3.831,-3.83c6.409,-0 19.23,-0 25.638,-0c1.016,-0 1.991,0.403 2.709,1.122c0.719,0.718 1.122,1.692 1.122,2.709c0,0.145 0,0.292 0,0.438c0,1.016 0.404,1.99 1.122,2.709c0.719,0.718 1.693,1.122 2.709,1.122c5.956,-0 17.368,-0 23.324,-0c1.016,-0 1.99,0.403 2.709,1.122c0.718,0.718 1.122,1.692 1.122,2.709c-0,7.752 -0,25.221 -0,32.97c-0,2.115 -1.713,3.829 -3.827,3.831c-5.952,0.007 -17.357,0.02 -23.282,0.027c-2.096,0.002 -3.801,1.689 -3.826,3.785c-0.002,0.166 -0.004,0.333 -0.006,0.498c-0.025,2.098 -1.732,3.786 -3.83,3.786c-6.394,0 -19.26,0 -25.684,0c-2.115,0 -3.831,-1.715 -3.831,-3.831l0,-49.167Z" style="fill-rule:nonzero;"/><path d="M1012.92,643.252c1.214,1.275 3.146,1.545 4.662,0.65c2.513,-1.426 6.293,-3.657 9.459,-5.524c1.181,-0.697 2.645,-0.709 3.838,-0.032c1.193,0.678 1.933,1.942 1.939,3.313c0.038,7.996 0.097,20.329 0.097,20.329l-0,24.841c-0,2.116 -1.715,3.831 -3.831,3.831c-11.428,-0 -45.195,-0 -56.624,-0c-2.116,-0 -3.831,-1.715 -3.831,-3.831l0,-25.226c0,-7.2 2.529,-13.329 7.586,-18.386c5.057,-5.057 11.143,-7.586 18.257,-7.586c7.37,0 13.519,2.541 18.448,7.621Z" style="fill-rule:nonzero;"/><path d="M987.94,561.548c-0.143,-0.077 -0.217,-0.241 -0.177,-0.399c0.04,-0.158 0.182,-0.269 0.345,-0.268c3.421,0.01 12.12,0.036 16.556,0.049c1.613,0.005 3.057,-1.002 3.61,-2.518c0.424,-1.164 0.927,-2.542 1.351,-3.705c0.552,-1.512 1.99,-2.518 3.599,-2.518c3.947,-0 11.342,-0 15.86,-0c2.116,-0 3.831,1.715 3.831,3.831l-0,40.681c-0,2.115 -1.715,3.83 -3.831,3.83c-11.392,0 -44.974,0 -56.367,0c-2.115,0 -3.83,-1.715 -3.83,-3.83l-0,-30.653c-0,-2.116 1.715,-3.831 3.83,-3.831c5.452,0 14.944,0 16.316,0c0.02,0 0.036,-0.013 0.041,-0.031c0.005,-0.019 -0.004,-0.038 -0.021,-0.047c-0.223,-0.119 -0.668,-0.355 -1.113,-0.591Z" style="fill-rule:nonzero;"/><path d="M1012.6,561.046c-0.047,-0.013 -0.095,-0.02 -0.143,-0.02c-1.285,-0.055 -10.94,-0.139 -15.854,-0.182c-1.694,-0.015 -3.178,-1.141 -3.647,-2.769c-0.288,-0.995 -0.612,-2.12 -0.9,-3.117c-0.473,-1.64 -1.974,-2.769 -3.681,-2.769c-3.992,-0 -11.216,-0 -15.659,-0c-2.115,-0 -3.83,1.715 -3.83,3.831l-0,40.681c-0,2.115 1.715,3.83 3.83,3.83c11.393,0 44.975,0 56.367,0c2.116,0 3.831,-1.715 3.831,-3.83l-0,-30.653c-0,-2.116 -1.715,-3.831 -3.831,-3.831c-5.374,0 -14.675,0 -16.253,0c-0.202,-0.002 -0.379,-0.136 -0.436,-0.33c-0.056,-0.194 0.021,-0.403 0.191,-0.513c0.015,-0.125 0.015,-0.255 0.015,-0.328Z" style="fill-rule:nonzero;"/><path d="M968.501,463.603c-0,-5.485 1.928,-10.157 5.785,-14.014c3.858,-3.857 8.529,-5.786 14.015,-5.786l40.783,0c1.016,0 1.99,0.404 2.709,1.122c0.718,0.719 1.122,1.693 1.122,2.709l-0,66.138c-0,1.016 -0.404,1.991 -1.122,2.709c-0.719,0.719 -1.693,1.122 -2.709,1.122l-40.783,0c-5.486,0 -10.157,-1.95 -14.015,-5.85c-3.857,-3.9 -5.785,-8.636 -5.785,-14.207c-0,-3.514 0.878,-6.771 2.636,-9.771c0.983,-1.679 2.147,-3.169 3.492,-4.472c0.742,-0.713 1.162,-1.699 1.161,-2.728c0,-1.029 -0.42,-2.014 -1.162,-2.727c-1.344,-1.304 -2.508,-2.795 -3.491,-4.473c-1.758,-3 -2.636,-6.257 -2.636,-9.772Z" style="fill-rule:nonzero;"/><path d="M1023.4,355.411c-6.343,-6.3 -13.929,-9.45 -22.757,-9.45c-8.829,-0 -16.372,3.15 -22.629,9.45c-6.257,6.3 -9.386,13.864 -9.386,22.692c0,8.915 3.108,16.5 9.322,22.758c6.214,6.257 13.778,9.385 22.693,9.385c8.914,0 16.521,-3.128 22.821,-9.385c6.3,-6.258 9.45,-13.843 9.45,-22.758c-0,-8.828 -3.172,-16.392 -9.514,-22.692Z" style="fill-rule:nonzero;"/><path d="M968.629,273.42c0,-1.016 0.404,-1.99 1.122,-2.708c0.719,-0.719 1.693,-1.123 2.709,-1.123c6.458,0 19.438,0 25.896,0c1.016,0 1.99,-0.403 2.708,-1.122c0.719,-0.718 1.122,-1.692 1.122,-2.708c0,-0.146 0,-0.293 0,-0.439c0,-2.115 1.716,-3.83 3.831,-3.831c5.905,0 17.163,0 23.067,0c2.116,0.001 3.831,1.716 3.831,3.831l-0,43.381c-0,2.116 -1.715,3.831 -3.831,3.831c-11.428,0 -45.195,0 -56.624,0c-2.116,0 -3.831,-1.715 -3.831,-3.831c0,-8.15 0,-27.13 0,-35.281Z" style="fill-rule:nonzero;"/><path d="M1023.4,173.097c-6.343,-6.3 -13.929,-9.45 -22.757,-9.45c-8.829,-0 -16.372,3.15 -22.629,9.45c-6.257,6.3 -9.386,13.864 -9.386,22.693c0,8.914 3.108,16.5 9.322,22.757c6.214,6.257 13.778,9.385 22.693,9.385c8.914,0 16.521,-3.128 22.821,-9.385c6.3,-6.257 9.45,-13.843 9.45,-22.757c-0,-8.829 -3.172,-16.393 -9.514,-22.693Z" style="fill-rule:nonzero;"/></g><path d="M379.556,892.737l-39.306,-19.663c-0,0 89.788,-44.883 89.788,-44.883c2.118,-1.058 3.456,-3.222 3.456,-5.59c-0,-2.367 -1.338,-4.532 -3.455,-5.59l-50.484,-25.242c-3.086,-1.543 -6.843,-0.291 -8.386,2.795c-1.542,3.085 -0.29,6.842 2.796,8.385l39.302,19.651c-0,0 -89.786,44.882 -89.786,44.882c-2.117,1.058 -3.455,3.222 -3.455,5.589c-0.001,2.368 1.336,4.532 3.453,5.591l50.484,25.254c3.085,1.544 6.843,0.292 8.386,-2.793c1.544,-3.085 0.292,-6.843 -2.793,-8.386Z"/><path d="M433.494,585.909l-0,-25.242c-0,-3.452 -2.799,-6.25 -6.25,-6.25l-94.718,-0c-0,-0 -0,-37.984 -0,-37.984c-0,-0 94.718,-0 94.718,-0c3.451,-0 6.25,-2.798 6.25,-6.25l-0,-25.242c-0,-3.45 -2.801,-6.25 -6.25,-6.25c-3.45,-0 -6.25,2.8 -6.25,6.25l-0,18.992c-0,-0 -94.718,-0 -94.718,-0c-3.452,-0 -6.25,2.798 -6.25,6.25l-0,50.484c-0,3.451 2.798,6.25 6.25,6.25l94.718,-0c-0,-0 -0,18.992 -0,18.992c-0,3.449 2.8,6.25 6.25,6.25c3.449,-0 6.25,-2.801 6.25,-6.25Z"/><path d="M111.92,735.903c-0,-0 -17.346,-1.825 -31.164,-7.371c-4.121,-1.654 -7.929,-3.613 -10.658,-6.065c-1.769,-1.59 -3.103,-3.331 -3.073,-5.518c0.012,-0.901 0.92,-1.463 1.849,-2.232c1.411,-1.169 3.237,-2.258 5.364,-3.326c9.487,-4.764 24.271,-8.742 39.004,-12.877c18.531,-5.202 36.936,-10.755 46.268,-17.676c5.774,-4.282 8.594,-9.302 8.482,-14.579c-0.164,-7.715 -5.692,-14.366 -14.269,-19.189c-15.74,-8.85 -41.702,-12.124 -41.702,-12.124c-3.424,-0.42 -6.545,2.019 -6.965,5.443c-0.42,3.423 2.018,6.544 5.442,6.964c-0,0 17.148,2.089 30.947,7.695c4.148,1.685 7.993,3.664 10.786,6.098c1.809,1.576 3.219,3.258 3.264,5.379c0.017,0.827 -0.503,1.512 -1.136,2.23c-1.381,1.564 -3.436,2.962 -5.923,4.337c-9.293,5.137 -23.928,9.276 -38.573,13.387c-18.412,5.168 -36.817,10.35 -46.288,16.636c-6.036,4.007 -8.982,8.8 -9.049,13.663c-0.111,8.072 5.344,14.861 13.954,19.737c15.743,8.916 42.119,11.818 42.119,11.818c3.43,0.364 6.511,-2.125 6.875,-5.555c0.365,-3.43 -2.124,-6.511 -5.554,-6.875Z"/><path d="M431.663,145.72l-90.299,-90.302c0,0 85.88,0 85.88,0c3.449,0 6.25,-2.801 6.25,-6.25c-0,-3.449 -2.801,-6.25 -6.25,-6.25l-100.968,0c-2.528,0 -4.807,1.523 -5.775,3.858c-0.967,2.336 -0.432,5.024 1.355,6.811l100.968,100.971c2.439,2.439 6.4,2.439 8.839,0c2.439,-2.439 2.439,-6.399 0,-8.838Z"/><path d="M427.244,453.694l-85.88,-0c0,-0 90.299,-90.302 90.299,-90.302c2.439,-2.439 2.439,-6.399 -0,-8.838c-2.439,-2.44 -6.4,-2.44 -8.839,-0l-100.968,100.97c-1.787,1.788 -2.322,4.476 -1.355,6.812c0.968,2.335 3.247,3.858 5.775,3.858l100.968,-0c3.449,-0 6.25,-2.801 6.25,-6.25c-0,-3.45 -2.801,-6.25 -6.25,-6.25Z"/><path d="M164.537,298.143l-89.788,-44.895c0,0 89.788,-44.895 89.788,-44.895c3.086,-1.543 4.338,-5.3 2.795,-8.386c-1.542,-3.085 -5.3,-4.337 -8.385,-2.795l-100.968,50.486c-2.117,1.059 -3.455,3.223 -3.455,5.59c0,2.367 1.338,4.531 3.455,5.59l100.968,50.486c3.085,1.542 6.843,0.29 8.385,-2.795c1.543,-3.086 0.291,-6.843 -2.795,-8.386Z"/></g></svg>